<?xml version="1.0" encoding="UTF-8" standalone="no"?>
<!DOCTYPE svg PUBLIC "-//W3C//DTD SVG 1.1//EN" "http://www.w3.org/Graphics/SVG/1.1/DTD/svg11.dtd">
<svg width="100%" height="100%" viewBox="0 0 837 110" version="1.1" xmlns="http://www.w3.org/2000/svg" xmlns:xlink="http://www.w3.org/1999/xlink" xml:space="preserve" xmlns:serif="http://www.serif.com/" style="fill-rule:evenodd;clip-rule:evenodd;stroke-linejoin:round;stroke-miterlimit:2;">
    <g transform="matrix(1,0,0,1,-141,-428)">
        <g transform="matrix(1.33333,0,0,1.33333,-8.0774,0)">
            <g id="title">
                <g transform="matrix(1.33,0,0,1.33,15.504,225.887)">
                    <g id="path374355">
                        <path d="M120.165,71.915L79.841,71.915L72.641,79.116L72.641,115.119L79.841,122.32L120.165,122.32L127.365,115.119L127.365,79.116L120.165,71.915ZM115.844,110.799L84.162,110.799L84.162,83.436L115.844,83.436L115.844,110.799Z" style="fill:white;fill-rule:nonzero;"/>
                    </g>
                </g>
                <g id="path374357" transform="matrix(1.33,0,0,1.33,-258.368,388.566)">
                    <g transform="matrix(1,0,0,1,262.067,-122.316)">
                        <path d="M76.961,110.799L76.961,89.917L84.162,82.716L111.524,82.716L111.524,94.237L88.482,94.237L88.482,110.799L76.961,110.799Z" style="fill:rgb(217,249,157);fill-rule:nonzero;"/>
                    </g>
                    <g transform="matrix(1,0,0,1,262.067,-122.316)">
                        <path d="M76.961,122.32L88.482,110.799L111.524,110.799L111.524,94.237L123.045,94.237L123.045,115.119L115.844,122.32L88.482,122.32L88.482,133.121L76.961,133.121L76.961,122.32Z" style="fill:white;fill-rule:nonzero;"/>
                    </g>
                </g>
                <g id="path374359" transform="matrix(1.33,0,0,1.33,-258.368,388.566)">
                    <g transform="matrix(1,0,0,1,313.958,-122.315)">
                        <path d="M76.961,71.915L88.482,71.915L88.482,82.716L115.844,82.716L123.045,89.917L123.045,122.32L111.524,122.32L111.524,94.237L88.482,94.237L76.961,82.716L76.961,71.915Z" style="fill:white;fill-rule:nonzero;"/>
                    </g>
                    <g transform="matrix(1,0,0,1,313.958,-122.315)">
                        <rect x="76.961" y="94.237" width="11.521" height="28.082" style="fill:rgb(217,249,157);"/>
                    </g>
                </g>
                <g id="path374361" transform="matrix(1.33,0,0,1.33,-258.368,388.566)">
                    <g transform="matrix(1,0,0,1,365.849,-122.316)">
                        <path d="M76.961,82.716L88.482,82.716L88.482,110.799L111.524,110.799L100.003,122.32L84.162,122.32L76.961,115.119L76.961,82.716Z" style="fill:white;fill-rule:nonzero;"/>
                    </g>
                    <g transform="matrix(1,0,0,1,365.849,-122.316)">
                        <rect x="111.524" y="82.716" width="11.521" height="39.603" style="fill:rgb(217,249,157);"/>
                    </g>
                </g>
                <g transform="matrix(1.33,0,0,1.33,297.225,225.885)">
                    <g id="path374363">
                        <path d="M76.961,110.799L111.524,110.799L111.524,108.279L84.162,108.279L76.961,101.078L76.961,89.917L84.162,82.716L123.045,82.716L123.045,94.237L88.482,94.237L88.482,96.758L115.844,96.758L123.045,103.958L123.045,115.119L115.844,122.32L76.961,122.32L76.961,110.799Z" style="fill:white;fill-rule:nonzero;"/>
                    </g>
                </g>
                <g id="path374365" transform="matrix(1.33,0,0,1.33,-258.368,388.566)">
                    <g transform="matrix(1,0,0,1,468.19,-122.316)">
                        <path d="M89.922,110.799L121.604,110.799L121.604,122.32L87.041,122.32L78.401,113.679L78.401,82.716L89.922,82.716L89.922,110.799Z" style="fill:white;fill-rule:nonzero;"/>
                    </g>
                    <g transform="matrix(1,0,0,1,468.19,-122.316)">
                        <path d="M101.443,82.716L121.604,82.716L121.604,94.237L89.922,94.237L101.443,82.716Z" style="fill:rgb(217,249,157);fill-rule:nonzero;"/>
                    </g>
                </g>
                <g transform="matrix(1.33,0,0,1.33,431.326,225.885)">
                    <g id="path374367">
                        <path d="M115.844,82.717L84.161,82.717L76.961,89.917L76.961,115.119L84.161,122.32L123.045,122.32L123.045,89.917L115.844,82.717ZM111.524,110.799L88.482,110.799L88.482,94.238L111.524,94.238L111.524,110.799Z" style="fill:white;fill-rule:nonzero;"/>
                    </g>
                </g>
                <g id="path374369" transform="matrix(1.33,0,0,1.33,-258.368,388.566)">
                    <g transform="matrix(1,0,0,1,570.458,-122.315)">
                        <path d="M88.482,94.237L88.482,110.799L76.961,110.799L76.961,89.917L84.161,82.716L111.524,82.716L111.524,71.915L123.045,71.915L123.045,82.716L111.524,94.237L88.482,94.237Z" style="fill:white;fill-rule:nonzero;"/>
                    </g>
                    <g transform="matrix(1,0,0,1,570.458,-122.315)">
                        <path d="M88.482,110.799L111.524,110.799L111.524,94.237L123.045,94.237L123.045,115.119L115.844,122.32L88.482,122.32L88.482,110.799Z" style="fill:rgb(217,249,157);fill-rule:nonzero;"/>
                    </g>
                </g>
                <g id="path374371" transform="matrix(1.33,0,0,1.33,-258.368,388.566)">
                    <g transform="matrix(1,0,0,1,622.349,-122.316)">
                        <path d="M88.482,94.237L88.482,110.799L111.524,110.799L100.003,122.32L76.961,122.32L76.961,105.758L88.482,94.237Z" style="fill:white;fill-rule:nonzero;"/>
                    </g>
                    <g transform="matrix(1,0,0,1,622.349,-122.316)">
                        <path d="M100.003,82.716L123.045,82.716L123.045,99.278L111.524,110.799L111.524,94.237L88.482,94.237L100.003,82.716Z" style="fill:rgb(217,249,157);fill-rule:nonzero;"/>
                    </g>
                </g>
            </g>
        </g>
    </g>
</svg>
